<svg width="386" height="386" viewBox="0 0 386 386" fill="none" xmlns="http://www.w3.org/2000/svg">
<path d="M19 349.073H140.873C158.282 349.073 175.299 343.911 189.774 334.239C204.249 324.568 215.531 310.821 222.193 294.737C228.855 278.654 230.598 260.956 227.201 243.882C223.805 226.808 215.422 211.124 203.112 198.815C190.803 186.505 175.119 178.122 158.045 174.725C140.971 171.329 123.273 173.072 107.19 179.734C91.1061 186.396 77.3593 197.678 67.6876 212.153C58.0159 226.627 52.8537 243.645 52.8537 261.054C52.8537 321.99 19 349.073 19 349.073Z" stroke="#194185" stroke-width="20" stroke-linecap="round" stroke-linejoin="round"/>
<path d="M175.404 180.143C207.903 136.303 290.506 35.9268 366 35.9268C366 111.42 265.624 194.023 221.783 226.523" stroke="#194185" stroke-width="20" stroke-linecap="round" stroke-linejoin="round"/>
<path d="M210.273 136.811C233.209 149.755 252.172 168.718 265.116 191.654" stroke="#194185" stroke-width="20" stroke-linecap="round" stroke-linejoin="round"/>
</svg>
