<svg width="100" height="100" viewBox="0 0 100 100" fill="none" xmlns="http://www.w3.org/2000/svg">
<path d="M49.8002 26.8088C37.3244 26.8088 26.9873 36.9677 26.9873 49.6217C26.9873 62.2757 37.1462 72.4345 49.8002 72.4345C62.4542 72.4345 72.613 62.0975 72.613 49.6217C72.613 37.1459 62.2759 26.8088 49.8002 26.8088ZM49.8002 64.2362C41.78 64.2362 35.1857 57.6418 35.1857 49.6217C35.1857 41.6015 41.78 35.0072 49.8002 35.0072C57.8203 35.0072 64.4146 41.6015 64.4146 49.6217C64.4146 57.6418 57.8203 64.2362 49.8002 64.2362Z" fill="black"/>
<path d="M73.5045 31.4428C76.359 31.4428 78.673 29.1288 78.673 26.2742C78.673 23.4197 76.359 21.1057 73.5045 21.1057C70.65 21.1057 68.3359 23.4197 68.3359 26.2742C68.3359 29.1288 70.65 31.4428 73.5045 31.4428Z" fill="black"/>
<path d="M86.8709 12.9073C82.237 8.09525 75.6427 5.6001 68.1572 5.6001H31.4428C15.9372 5.6001 5.6001 15.9372 5.6001 31.4428V67.979C5.6001 75.6427 8.09525 82.237 13.0856 87.0491C17.8977 91.683 24.3138 93.9999 31.621 93.9999H67.979C75.6427 93.9999 82.0588 91.5048 86.6927 87.0491C91.5047 82.4153 93.9999 75.8209 93.9999 68.1572V31.4428C93.9999 23.9573 91.5047 17.5412 86.8709 12.9073ZM86.158 68.1572C86.158 73.6822 84.1975 78.1378 80.9894 81.1677C77.7814 84.1975 73.3258 85.8015 67.979 85.8015H31.621C26.2742 85.8015 21.8186 84.1975 18.6106 81.1677C15.4025 77.9596 13.7985 73.504 13.7985 67.979V31.4428C13.7985 26.096 15.4025 21.6404 18.6106 18.4323C21.6404 15.4025 26.2742 13.7985 31.621 13.7985H68.3354C73.6822 13.7985 78.1378 15.4025 81.3459 18.6106C84.3757 21.8186 86.158 26.2742 86.158 31.4428V68.1572Z" fill="black"/>
</svg>
