<svg width="404" height="410" viewBox="0 0 404 410" fill="none" xmlns="http://www.w3.org/2000/svg">
<path fill-rule="evenodd" clip-rule="evenodd" d="M403.369 205C403.369 318.218 313.072 410 201.685 410C90.2973 410 0 318.218 0 205C0 91.7816 90.2973 0 201.685 0C313.072 0 403.369 91.7816 403.369 205ZM290.535 115.903C298.41 120.37 304.82 126.42 309.765 134.053C314.893 141.685 317.457 150.248 317.457 159.741C317.457 169.235 311.596 180.125 299.875 192.411C288.154 204.697 273.869 215.214 257.021 223.963C240.355 232.526 225.795 236.808 213.342 236.808C201.071 236.808 192.189 231.595 186.695 221.171C155.195 264.172 137.43 290.233 133.401 299.354C133.584 300.285 133.676 301.588 133.676 303.263C133.676 305.125 132.668 306.056 130.654 306.056C128.639 306.056 125.984 304.287 122.687 300.75C119.574 297.4 118.017 292.56 118.017 286.231C118.017 284.369 118.109 282.88 118.292 281.763C119.94 269.477 136.698 245.277 168.564 209.164C200.613 173.051 223.689 151.085 237.791 143.267C240.721 141.778 242.919 141.033 244.384 141.033C245.849 141.033 247.314 141.499 248.779 142.429C250.428 143.36 251.252 144.477 251.252 145.78C251.252 147.083 250.885 148.107 250.153 148.852C236.417 163.371 228.176 172.213 225.429 175.378L192.738 213.911C192.372 214.47 192.189 215.028 192.189 215.586C192.189 216.89 193.013 217.541 194.661 217.541C201.987 217.541 211.877 215.4 224.33 211.119C236.967 206.837 249.42 201.532 261.691 195.203C273.961 188.688 284.583 181.149 293.557 172.586C302.531 163.837 307.018 155.739 307.018 148.293C307.018 142.15 301.249 137.589 289.711 134.611C278.173 131.633 265.72 130.143 252.351 130.143C239.164 130.143 224.88 132.098 209.496 136.007C194.112 139.73 180.651 144.384 169.113 149.968C157.759 155.553 147.503 161.417 138.346 167.56C129.189 173.516 122.229 178.822 117.468 183.476C112.889 187.943 110.6 190.922 110.6 192.411C110.6 193.714 111.241 194.365 112.523 194.365C113.805 194.365 117.285 193.435 122.962 191.573C141.276 185.43 159.224 177.146 176.805 166.722C178.087 165.977 178.911 165.605 179.278 165.605C179.827 165.605 180.102 165.884 180.102 166.443C180.102 166.815 178.911 168.583 176.531 171.748C174.333 174.726 171.219 178.449 167.19 182.917C163.161 187.199 158.766 191.387 154.004 195.482C149.243 199.578 143.84 203.114 137.796 206.093C131.936 208.885 126.167 210.281 120.49 210.281C114.995 210.281 109.501 208.047 104.007 203.58C98.696 198.926 96.0405 192.69 96.0405 184.872C96.0405 176.867 99.8864 168.211 107.578 158.904C115.27 149.596 125.343 140.754 137.796 132.377C150.433 124 166.092 116.927 184.772 111.156C203.452 105.385 221.675 102.5 239.439 102.5C257.204 102.5 274.236 106.968 290.535 115.903ZM378.159 205C378.159 304.066 299.149 384.375 201.685 384.375C104.221 384.375 25.2108 304.066 25.2108 205C25.2108 105.934 104.221 25.6248 201.685 25.6248C299.149 25.6248 378.159 105.934 378.159 205ZM393.285 205C393.285 312.557 307.503 399.75 201.685 399.75C95.8669 399.75 10.0845 312.557 10.0845 205C10.0845 97.4424 95.8669 10.2498 201.685 10.2498C307.503 10.2498 393.285 97.4424 393.285 205Z" fill="white"/>
</svg>
