<svg width="39" height="39" viewBox="0 0 39 39" fill="none" xmlns="http://www.w3.org/2000/svg">
<path d="M19.073 9.15192C13.6895 9.15192 9.22888 13.5356 9.22888 18.996C9.22888 24.4564 13.6126 28.8401 19.073 28.8401C24.5334 28.8401 28.9171 24.3795 28.9171 18.996C28.9171 13.6125 24.4565 9.15192 19.073 9.15192ZM19.073 25.3024C15.6122 25.3024 12.7666 22.4568 12.7666 18.996C12.7666 15.5352 15.6122 12.6896 19.073 12.6896C22.5338 12.6896 25.3794 15.5352 25.3794 18.996C25.3794 22.4568 22.5338 25.3024 19.073 25.3024Z" fill="#FF8900"/>
<path d="M29.3015 11.1515C30.5332 11.1515 31.5318 10.153 31.5318 8.92122C31.5318 7.68946 30.5332 6.69092 29.3015 6.69092C28.0697 6.69092 27.0712 7.68946 27.0712 8.92122C27.0712 10.153 28.0697 11.1515 29.3015 11.1515Z" fill="#FF8900"/>
<path d="M35.0696 3.15319C33.07 1.0767 30.2245 0 26.9944 0H11.1515C4.46061 0 0 4.46061 0 11.1515V26.9175C0 30.2245 1.0767 33.07 3.2301 35.1465C5.30659 37.1461 8.07524 38.1459 11.2284 38.1459H26.9175C30.2245 38.1459 32.9931 37.0692 34.9927 35.1465C37.0692 33.147 38.1459 30.3014 38.1459 26.9944V11.1515C38.1459 7.92143 37.0692 5.15277 35.0696 3.15319ZM34.762 26.9944C34.762 29.3785 33.916 31.3012 32.5317 32.6086C31.1474 33.916 29.2247 34.6082 26.9175 34.6082H11.2284C8.92122 34.6082 6.99854 33.916 5.61422 32.6086C4.22989 31.2243 3.53773 29.3016 3.53773 26.9175V11.1515C3.53773 8.84431 4.22989 6.92164 5.61422 5.53731C6.92164 4.22989 8.92122 3.53773 11.2284 3.53773H27.0713C29.3785 3.53773 31.3012 4.22989 32.6855 5.61422C33.9929 6.99854 34.762 8.92122 34.762 11.1515V26.9944Z" fill="#FF8900"/>
</svg>
