<svg width="53" height="53" viewBox="0 0 53 53" fill="none" xmlns="http://www.w3.org/2000/svg">
<path fill-rule="evenodd" clip-rule="evenodd" d="M53 26.5C53 41.1355 41.1355 53 26.5 53C11.8645 53 0 41.1355 0 26.5C0 11.8645 11.8645 0 26.5 0C41.1355 0 53 11.8645 53 26.5ZM38.1744 14.9826C39.2091 15.5601 40.0513 16.3421 40.701 17.3287C41.3748 18.3153 41.7117 19.4223 41.7117 20.6495C41.7117 21.8767 40.9416 23.2844 39.4016 24.8726C37.8615 26.4608 35.9846 27.8204 33.7708 28.9513C31.581 30.0583 29.6679 30.6117 28.0316 30.6117C26.4194 30.6117 25.2523 29.9379 24.5304 28.5904C20.3915 34.149 18.0574 37.5179 17.528 38.697C17.552 38.8173 17.5641 38.9858 17.5641 39.2023C17.5641 39.443 17.4317 39.5633 17.167 39.5633C16.9023 39.5633 16.5534 39.3347 16.1203 38.8775C15.7112 38.4443 15.5067 37.8187 15.5067 37.0005C15.5067 36.7599 15.5187 36.5674 15.5428 36.423C15.7593 34.8348 17.9611 31.7066 22.1481 27.0383C26.3592 22.37 29.3912 19.5305 31.2441 18.5199C31.6291 18.3274 31.9179 18.2311 32.1104 18.2311C32.3029 18.2311 32.4954 18.2913 32.6879 18.4116C32.9045 18.5319 33.0128 18.6763 33.0128 18.8447C33.0128 19.0132 32.9646 19.1455 32.8684 19.2418C31.0636 21.1187 29.9808 22.2617 29.6198 22.6708L25.3245 27.6519C25.2764 27.7241 25.2523 27.7963 25.2523 27.8685C25.2523 28.0369 25.3606 28.1212 25.5772 28.1212C26.5397 28.1212 27.8391 27.8444 29.4754 27.291C31.1358 26.7375 32.7721 26.0517 34.3844 25.2336C35.9966 24.3913 37.3923 23.4168 38.5714 22.3099C39.7505 21.1789 40.34 20.1321 40.34 19.1696C40.34 18.3755 39.5821 17.7859 38.0661 17.4009C36.5501 17.0159 34.9138 16.8234 33.1571 16.8234C31.4246 16.8234 29.5476 17.0761 27.5263 17.5814C25.505 18.0627 23.7363 18.6643 22.2203 19.3862C20.7284 20.1081 19.3809 20.8661 18.1777 21.6601C16.9745 22.4302 16.0601 23.116 15.4345 23.7176C14.8329 24.2951 14.5321 24.6801 14.5321 24.8726C14.5321 25.041 14.6163 25.1253 14.7848 25.1253C14.9532 25.1253 15.4104 25.005 16.1564 24.7643C18.5627 23.9702 20.9209 22.8994 23.231 21.5519C23.3994 21.4556 23.5077 21.4075 23.5559 21.4075C23.628 21.4075 23.6641 21.4436 23.6641 21.5158C23.6641 21.5639 23.5077 21.7925 23.1949 22.2016C22.9061 22.5866 22.4971 23.0679 21.9677 23.6454C21.4383 24.1988 20.8608 24.7403 20.2351 25.2697C19.6095 25.799 18.8996 26.2563 18.1055 26.6413C17.3355 27.0022 16.5775 27.1827 15.8315 27.1827C15.1096 27.1827 14.3877 26.8939 13.6658 26.3164C12.968 25.7148 12.6191 24.9087 12.6191 23.898C12.6191 22.8633 13.1244 21.7444 14.135 20.5412C15.1457 19.338 16.4692 18.195 18.1055 17.1122C19.7659 16.0293 21.8233 15.1149 24.2778 14.3689C26.7322 13.623 29.1265 13.25 31.4607 13.25C33.7948 13.25 36.0327 13.8275 38.1744 14.9826ZM49.6875 26.5C49.6875 39.3061 39.3061 49.6875 26.5 49.6875C13.6939 49.6875 3.3125 39.3061 3.3125 26.5C3.3125 13.6939 13.6939 3.31247 26.5 3.31247C39.3061 3.31247 49.6875 13.6939 49.6875 26.5ZM51.675 26.5C51.675 40.4038 40.4038 51.675 26.5 51.675C12.5962 51.675 1.325 40.4038 1.325 26.5C1.325 12.5962 12.5962 1.32497 26.5 1.32497C40.4038 1.32497 51.675 12.5962 51.675 26.5Z" fill="#FF8900"/>
</svg>
