<svg width="53" height="39" viewBox="0 0 53 39" fill="none" xmlns="http://www.w3.org/2000/svg">
<path d="M50.8702 0.57703H2.12952H1.97955C1.84893 0.559284 1.7165 0.559284 1.58588 0.57703L1.26719 0.708255C1.1652 0.757378 1.07056 0.820473 0.985993 0.895719C0.879342 0.968246 0.784498 1.05677 0.704797 1.15817L0.592318 1.27065C0.585261 1.32666 0.585261 1.38335 0.592318 1.43936C0.531085 1.55304 0.480865 1.67231 0.442347 1.79555C0.363681 1.9448 0.300851 2.10187 0.254883 2.26421V2.45167V36.1952C0.254883 36.6924 0.452389 37.1692 0.803952 37.5208C1.15552 37.8723 1.63234 38.0698 2.12952 38.0698H50.8702C51.3674 38.0698 51.8442 37.8723 52.1957 37.5208C52.5473 37.1692 52.7448 36.6924 52.7448 36.1952V2.45167C52.7448 1.95448 52.5473 1.47766 52.1957 1.1261C51.8442 0.774537 51.3674 0.57703 50.8702 0.57703ZM26.4998 17.0926L8.12837 4.32631H47.2896L26.4998 17.0926ZM4.00416 34.3206V6.03223L25.4313 20.8606C25.5399 20.9243 25.6526 20.9807 25.7687 21.0294H25.9187C26.103 21.1141 26.2988 21.171 26.4998 21.1981C26.7665 21.191 27.0285 21.1271 27.2685 21.0106H27.3997L48.9955 7.68192V34.3206H4.00416Z" fill="white"/>
</svg>
