<svg width="32" height="37" viewBox="0 0 32 37" fill="none" xmlns="http://www.w3.org/2000/svg">
<path d="M15.6616 36.9649C15.4742 36.966 15.2885 36.9301 15.115 36.8593C14.9416 36.7884 14.7838 36.684 14.6508 36.5521L4.58559 26.5865C3.13242 25.143 1.97914 23.4262 1.19215 21.5351C0.405158 19.6439 0 17.6158 0 15.5675C0 13.5192 0.405158 11.4911 1.19215 9.59996C1.97914 7.70884 3.13242 5.99207 4.58559 4.54848C7.53543 1.63424 11.515 0 15.6616 0C19.8082 0 23.7877 1.63424 26.7376 4.54848C28.1907 5.99207 29.344 7.70884 30.131 9.59996C30.918 11.4911 31.3231 13.5192 31.3231 15.5675C31.3231 17.6158 30.918 19.6439 30.131 21.5351C29.344 23.4262 28.1907 25.143 26.7376 26.5865L16.6724 36.5521C16.5393 36.684 16.3816 36.7884 16.2081 36.8593C16.0347 36.9301 15.8489 36.966 15.6616 36.9649ZM15.6616 2.79739C12.2637 2.78905 9.00165 4.13074 6.59293 6.52735C5.40663 7.70625 4.46518 9.1081 3.82274 10.6523C3.1803 12.1964 2.84957 13.8523 2.84957 15.5248C2.84957 17.1973 3.1803 18.8532 3.82274 20.3974C4.46518 21.9415 5.40663 23.3434 6.59293 24.5223L15.6616 33.5339L24.7302 24.5223C25.9165 23.3434 26.858 21.9415 27.5004 20.3974C28.1428 18.8532 28.4736 17.1973 28.4736 15.5248C28.4736 13.8523 28.1428 12.1964 27.5004 10.6523C26.858 9.1081 25.9165 7.70625 24.7302 6.52735C22.3215 4.13074 19.0594 2.78905 15.6616 2.79739Z" fill="white"/>
<path d="M15.6616 22.7283C14.2537 22.7283 12.8775 22.3108 11.7069 21.5287C10.5363 20.7465 9.62394 19.6348 9.08518 18.3341C8.54642 17.0334 8.40545 15.6022 8.68011 14.2214C8.95477 12.8406 9.63272 11.5722 10.6282 10.5767C11.6237 9.58121 12.8921 8.90326 14.2729 8.6286C15.6537 8.35394 17.0849 8.49491 18.3856 9.03367C19.6863 9.57243 20.798 10.4848 21.5802 11.6554C22.3623 12.826 22.7798 14.2022 22.7798 15.6101C22.7798 17.4979 22.0299 19.3085 20.6949 20.6434C19.36 21.9783 17.5495 22.7283 15.6616 22.7283ZM15.6616 11.3391C14.8169 11.3391 13.9911 11.5896 13.2888 12.0589C12.5864 12.5282 12.039 13.1952 11.7157 13.9756C11.3925 14.7561 11.3079 15.6148 11.4727 16.4433C11.6375 17.2718 12.0443 18.0328 12.6416 18.6301C13.2389 19.2274 13.9999 19.6341 14.8284 19.7989C15.6568 19.9637 16.5156 19.8792 17.296 19.5559C18.0764 19.2326 18.7434 18.6852 19.2127 17.9829C19.682 17.2805 19.9325 16.4548 19.9325 15.6101C19.9325 14.4773 19.4825 13.391 18.6816 12.5901C17.8806 11.7891 16.7943 11.3391 15.6616 11.3391Z" fill="white"/>
</svg>
