<svg width="37" height="37" viewBox="0 0 37 37" fill="none" xmlns="http://www.w3.org/2000/svg">
<path fill-rule="evenodd" clip-rule="evenodd" d="M0 8.244C0 3.69109 3.69055 0 8.24338 0C9.13247 0 9.99138 0.141283 10.7973 0.403684C11.8279 0.73926 12.4332 1.63391 12.5886 2.52571M12.5886 2.52571L13.5425 7.99849L13.9893 10.5599L14.2325 12.2715C14.3582 13.1519 14.0724 14.1687 13.2276 14.811C12.3516 15.4767 11.3369 15.972 10.2336 16.2458C11.2433 18.5828 12.6865 20.7086 14.4878 22.5101C16.2902 24.3126 18.417 25.7566 20.7552 26.7664C21.0287 25.6635 21.5237 24.6491 22.1888 23.7734C22.8309 22.9279 23.8482 22.6419 24.7289 22.7677L26.4382 23.0117L28.9974 23.4574L34.4746 24.4117C35.3666 24.5671 36.2616 25.1728 36.597 26.2038C36.859 27.0093 37 27.8675 37 28.756C37 33.309 33.3095 37 28.7567 37C28.3911 37 28.0303 36.9761 27.6761 36.9297C26.0248 36.8677 24.3845 36.6632 22.7733 36.3199C21.0652 35.9562 19.3898 35.4363 17.7686 34.7646C14.286 33.3221 11.1217 31.2075 8.45631 28.5418C5.79088 25.8761 3.67656 22.7115 2.23404 19.2286C1.56253 17.6073 1.04272 15.9318 0.678896 14.2237C0.335335 12.6106 0.130867 10.9683 0.0690907 9.31503C0.0234524 8.96386 0 8.60633 0 8.244M28.509 26.2613L25.9715 25.8195L24.3824 25.5932C23.968 26.1651 23.6639 26.8203 23.4994 27.5281C23.3304 28.2552 22.8822 28.8907 22.2725 29.2849C21.6452 29.6904 20.7917 29.8645 19.9436 29.5132C17.1507 28.3562 14.6129 26.6603 12.4752 24.5225C10.3375 22.3847 8.64187 19.8467 7.48499 17.0534C7.13421 16.2066 7.30813 15.354 7.71313 14.7276C8.10679 14.1186 8.74164 13.6709 9.46809 13.5026C10.1774 13.3382 10.8339 13.0334 11.407 12.618L11.1721 10.9721L10.7386 8.48769L9.79471 3.07207C9.30497 2.92539 8.78462 2.84615 8.24338 2.84615C5.2627 2.84615 2.84616 5.26272 2.84616 8.244C2.84616 8.50056 2.86397 8.75216 2.89819 8.99782L2.90838 9.07091L2.91096 9.14465C2.96365 10.6557 3.14868 12.1567 3.46263 13.6308C3.79038 15.1696 4.25866 16.679 4.8636 18.1395C6.1631 21.2771 8.0678 24.128 10.4689 26.5294C12.8701 28.9307 15.7206 30.8357 18.858 32.1352C20.3183 32.7402 21.8275 33.2085 23.3663 33.5362C24.8388 33.85 26.3383 34.035 27.8477 34.0878L27.9223 34.0905L27.9962 34.1009C28.2439 34.1358 28.4978 34.1538 28.7567 34.1538C31.7373 34.1538 34.1538 31.7373 34.1538 28.756C34.1538 28.2151 34.0747 27.6951 33.9283 27.2057L28.509 26.2613Z" fill="white"/>
</svg>
