<svg width="386" height="386" viewBox="0 0 386 386" fill="none" xmlns="http://www.w3.org/2000/svg">
<path d="M171.89 104.724C180.369 104.724 187.243 97.8501 187.243 89.3712C187.243 80.8923 180.369 74.0188 171.89 74.0188C163.412 74.0188 156.538 80.8923 156.538 89.3712C156.538 97.8501 163.412 104.724 171.89 104.724Z" fill="#194185"/>
<path d="M121.995 104.724C130.474 104.724 137.348 97.8501 137.348 89.3712C137.348 80.8923 130.474 74.0188 121.995 74.0188C113.516 74.0188 106.643 80.8923 106.643 89.3712C106.643 97.8501 113.516 104.724 121.995 104.724Z" fill="#194185"/>
<path d="M74.019 104.724C82.4979 104.724 89.3714 97.8501 89.3714 89.3712C89.3714 80.8923 82.4979 74.0188 74.019 74.0188C65.5402 74.0188 58.6667 80.8923 58.6667 89.3712C58.6667 97.8501 65.5402 104.724 74.019 104.724Z" fill="#194185"/>
<rect x="17" y="36.1904" width="352" height="313.619" rx="41" stroke="#194185" stroke-width="20"/>
<path d="M18.8095 136.905H370.881" stroke="#194185" stroke-width="20"/>
</svg>
